<?xml version="1.0" standalone="no"?>
<!DOCTYPE svg PUBLIC "-//W3C//DTD SVG 20010904//EN"
 "http://www.w3.org/TR/2001/REC-SVG-20010904/DTD/svg10.dtd">
<svg version="1.0" xmlns="http://www.w3.org/2000/svg"
 width="180.000000pt" height="180.000000pt" viewBox="0 0 180.000000 180.000000"
 preserveAspectRatio="xMidYMid meet">
<metadata>
Created by potrace 1.11, written by Peter Selinger 2001-2013
</metadata>
<g transform="translate(0.000000,180.000000) scale(0.100000,-0.100000)"
fill="#000000" stroke="none">
<path d="M1223 1698 c-32 -40 -70 -86 -85 -102 -30 -31 -34 -41 -18 -51 6 -4
5 -13 -3 -26 -10 -16 -9 -21 2 -28 10 -7 4 -19 -28 -53 -45 -49 -49 -62 -25
-76 14 -8 14 -10 0 -21 -9 -8 -16 -23 -16 -35 0 -12 -13 -35 -30 -51 -35 -34
-38 -60 -9 -76 l21 -11 -21 -22 c-12 -12 -21 -31 -21 -42 0 -11 -21 -40 -46
-64 -33 -33 -44 -51 -41 -67 l4 -23 -187 0 -188 0 18 -37 c61 -128 300 -700
300 -719 0 -29 -27 -44 -79 -44 -30 0 -43 5 -51 19 -9 17 -13 18 -37 6 -58
-27 -72 -28 -78 -3 -3 13 -25 162 -50 332 -25 170 -47 312 -50 314 -3 3 -5 3
-5 1 0 -5 -55 -379 -71 -484 -6 -38 -14 -95 -18 -125 -6 -51 -8 -55 -31 -52
-13 1 -36 9 -52 16 -26 13 -29 13 -38 -5 -12 -21 -77 -27 -111 -9 -29 16 -24
47 27 165 25 59 43 109 41 112 -7 6 -94 -39 -142 -74 -47 -35 -90 -95 -100
-140 -15 -73 41 -168 120 -204 38 -17 85 -19 775 -19 690 0 737 2 775 19 70
31 125 113 125 185 0 40 -43 108 -94 148 -53 42 -160 97 -232 118 l-42 13 -12
114 c-7 62 -10 116 -8 118 3 3 49 -2 104 -10 115 -17 227 -19 255 -5 38 21 23
60 -56 145 l-73 79 29 18 c40 24 37 50 -13 104 -23 25 -43 53 -44 61 -2 9 -12
25 -23 37 l-21 20 27 21 26 22 -37 41 c-21 23 -35 45 -32 50 3 6 -3 21 -14 35
-17 21 -18 26 -5 31 26 10 16 39 -27 83 -23 24 -37 43 -31 43 8 0 11 16 11 43
-1 34 -9 51 -42 88 -23 25 -60 69 -84 97 -24 29 -51 52 -62 52 -12 0 -42 -28
-77 -72z"/>
</g>
</svg>
